<svg width="35" height="35" viewBox="0 0 35 35" fill="none" xmlns="http://www.w3.org/2000/svg">
<path d="M28.3784 30.2702H6.62163C6.11987 30.2702 5.63866 30.0709 5.28386 29.7161C4.92906 29.3613 4.72974 28.8801 4.72974 28.3783V6.62157C4.72974 6.11981 4.92906 5.6386 5.28386 5.2838C5.63866 4.929 6.11987 4.72968 6.62163 4.72968H28.3784C28.8801 4.72968 29.3614 4.929 29.7162 5.2838C30.071 5.6386 30.2703 6.11981 30.2703 6.62157V28.3783C30.2703 28.8801 30.071 29.3613 29.7162 29.7161C29.3614 30.0709 28.8801 30.2702 28.3784 30.2702ZM6.62163 5.67562C6.37075 5.67562 6.13014 5.77528 5.95274 5.95268C5.77534 6.13008 5.67568 6.37069 5.67568 6.62157V28.3783C5.67568 28.6292 5.77534 28.8698 5.95274 29.0472C6.13014 29.2246 6.37075 29.3243 6.62163 29.3243H28.3784C28.6293 29.3243 28.8699 29.2246 29.0473 29.0472C29.2247 28.8698 29.3243 28.6292 29.3243 28.3783V6.62157C29.3243 6.37069 29.2247 6.13008 29.0473 5.95268C28.8699 5.77528 28.6293 5.67562 28.3784 5.67562H6.62163Z" fill="#F2F2F2"/>
<path d="M8.04054 22.2591C7.9151 22.2591 7.7948 22.2093 7.7061 22.1206C7.6174 22.0319 7.56757 21.9116 7.56757 21.7861V20.8998C7.56757 20.7744 7.6174 20.654 7.7061 20.5653C7.7948 20.4766 7.9151 20.4268 8.04054 20.4268C8.16598 20.4268 8.28628 20.4766 8.37498 20.5653C8.46368 20.654 8.51351 20.7744 8.51351 20.8998V21.7861C8.51351 21.9116 8.46368 22.0319 8.37498 22.1206C8.28628 22.2093 8.16598 22.2591 8.04054 22.2591Z" fill="#F2F2F2"/>
<path d="M26.4865 27.4325H8.51351C8.26263 27.4325 8.02203 27.3328 7.84463 27.1554C7.66723 26.978 7.56757 26.7374 7.56757 26.4865V24.151C7.56757 24.0256 7.6174 23.9053 7.7061 23.8166C7.7948 23.7279 7.9151 23.678 8.04054 23.678C8.16598 23.678 8.28628 23.7279 8.37498 23.8166C8.46368 23.9053 8.51351 24.0256 8.51351 24.151V26.4865H26.4865V8.51357H8.51351V18.5349C8.51351 18.6604 8.46368 18.7807 8.37498 18.8694C8.28628 18.9581 8.16598 19.0079 8.04054 19.0079C7.9151 19.0079 7.7948 18.9581 7.7061 18.8694C7.6174 18.7807 7.56757 18.6604 7.56757 18.5349V8.51357C7.56757 8.26269 7.66723 8.02209 7.84463 7.84469C8.02203 7.66729 8.26263 7.56763 8.51351 7.56763H26.4865C26.7374 7.56763 26.978 7.66729 27.1554 7.84469C27.3328 8.02209 27.4324 8.26269 27.4324 8.51357V26.4865C27.4324 26.7374 27.3328 26.978 27.1554 27.1554C26.978 27.3328 26.7374 27.4325 26.4865 27.4325Z" fill="#F2F2F2"/>
<path d="M26.0135 5.67565C25.8881 5.67565 25.7678 5.62582 25.6791 5.53712C25.5904 5.44842 25.5406 5.32812 25.5406 5.20268V1.4189C25.5406 1.29346 25.5904 1.17315 25.6791 1.08445C25.7678 0.995754 25.8881 0.945923 26.0135 0.945923C26.139 0.945923 26.2593 0.995754 26.348 1.08445C26.4367 1.17315 26.4865 1.29346 26.4865 1.4189V5.20268C26.4865 5.32812 26.4367 5.44842 26.348 5.53712C26.2593 5.62582 26.139 5.67565 26.0135 5.67565Z" fill="#F2F2F2"/>
<path d="M22.6081 5.67565C22.4827 5.67565 22.3624 5.62582 22.2737 5.53712C22.185 5.44842 22.1351 5.32812 22.1351 5.20268V1.4189C22.1351 1.29346 22.185 1.17315 22.2737 1.08445C22.3624 0.995754 22.4827 0.945923 22.6081 0.945923C22.7335 0.945923 22.8538 0.995754 22.9425 1.08445C23.0312 1.17315 23.0811 1.29346 23.0811 1.4189V5.20268C23.0811 5.32812 23.0312 5.44842 22.9425 5.53712C22.8538 5.62582 22.7335 5.67565 22.6081 5.67565Z" fill="#F2F2F2"/>
<path d="M19.2027 5.67565C19.0773 5.67565 18.957 5.62582 18.8683 5.53712C18.7796 5.44842 18.7297 5.32812 18.7297 5.20268V1.4189C18.7297 1.29346 18.7796 1.17315 18.8683 1.08445C18.957 0.995754 19.0773 0.945923 19.2027 0.945923C19.3282 0.945923 19.4485 0.995754 19.5372 1.08445C19.6259 1.17315 19.6757 1.29346 19.6757 1.4189V5.20268C19.6757 5.32812 19.6259 5.44842 19.5372 5.53712C19.4485 5.62582 19.3282 5.67565 19.2027 5.67565Z" fill="#F2F2F2"/>
<path d="M15.7973 5.67565C15.6719 5.67565 15.5516 5.62582 15.4629 5.53712C15.3742 5.44842 15.3243 5.32812 15.3243 5.20268V1.4189C15.3243 1.29346 15.3742 1.17315 15.4629 1.08445C15.5516 0.995754 15.6719 0.945923 15.7973 0.945923C15.9227 0.945923 16.043 0.995754 16.1317 1.08445C16.2204 1.17315 16.2703 1.29346 16.2703 1.4189V5.20268C16.2703 5.32812 16.2204 5.44842 16.1317 5.53712C16.043 5.62582 15.9227 5.67565 15.7973 5.67565Z" fill="#F2F2F2"/>
<path d="M12.3919 5.67565C12.2665 5.67565 12.1462 5.62582 12.0575 5.53712C11.9688 5.44842 11.9189 5.32812 11.9189 5.20268V1.4189C11.9189 1.29346 11.9688 1.17315 12.0575 1.08445C12.1462 0.995754 12.2665 0.945923 12.3919 0.945923C12.5173 0.945923 12.6376 0.995754 12.7263 1.08445C12.815 1.17315 12.8649 1.29346 12.8649 1.4189V5.20268C12.8649 5.32812 12.815 5.44842 12.7263 5.53712C12.6376 5.62582 12.5173 5.67565 12.3919 5.67565Z" fill="#F2F2F2"/>
<path d="M8.98649 5.67565C8.86105 5.67565 8.74075 5.62582 8.65205 5.53712C8.56335 5.44842 8.51352 5.32812 8.51352 5.20268V1.4189C8.51352 1.29346 8.56335 1.17315 8.65205 1.08445C8.74075 0.995754 8.86105 0.945923 8.98649 0.945923C9.11193 0.945923 9.23223 0.995754 9.32093 1.08445C9.40963 1.17315 9.45946 1.29346 9.45946 1.4189V5.20268C9.45946 5.32812 9.40963 5.44842 9.32093 5.53712C9.23223 5.62582 9.11193 5.67565 8.98649 5.67565Z" fill="#F2F2F2"/>
<path d="M26.0135 34.0541C25.8881 34.0541 25.7678 34.0042 25.6791 33.9155C25.5904 33.8268 25.5406 33.7065 25.5406 33.5811V29.7973C25.5406 29.6719 25.5904 29.5516 25.6791 29.4629C25.7678 29.3742 25.8881 29.3243 26.0135 29.3243C26.139 29.3243 26.2593 29.3742 26.348 29.4629C26.4367 29.5516 26.4865 29.6719 26.4865 29.7973V33.5811C26.4865 33.7065 26.4367 33.8268 26.348 33.9155C26.2593 34.0042 26.139 34.0541 26.0135 34.0541Z" fill="#F2F2F2"/>
<path d="M22.6081 34.0541C22.4827 34.0541 22.3624 34.0042 22.2737 33.9155C22.185 33.8268 22.1351 33.7065 22.1351 33.5811V29.7973C22.1351 29.6719 22.185 29.5516 22.2737 29.4629C22.3624 29.3742 22.4827 29.3243 22.6081 29.3243C22.7335 29.3243 22.8538 29.3742 22.9425 29.4629C23.0312 29.5516 23.0811 29.6719 23.0811 29.7973V33.5811C23.0811 33.7065 23.0312 33.8268 22.9425 33.9155C22.8538 34.0042 22.7335 34.0541 22.6081 34.0541Z" fill="#F2F2F2"/>
<path d="M19.2027 34.0541C19.0773 34.0541 18.957 34.0042 18.8683 33.9155C18.7796 33.8268 18.7297 33.7065 18.7297 33.5811V29.7973C18.7297 29.6719 18.7796 29.5516 18.8683 29.4629C18.957 29.3742 19.0773 29.3243 19.2027 29.3243C19.3282 29.3243 19.4485 29.3742 19.5372 29.4629C19.6259 29.5516 19.6757 29.6719 19.6757 29.7973V33.5811C19.6757 33.7065 19.6259 33.8268 19.5372 33.9155C19.4485 34.0042 19.3282 34.0541 19.2027 34.0541Z" fill="#F2F2F2"/>
<path d="M15.7973 34.0541C15.6719 34.0541 15.5516 34.0042 15.4629 33.9155C15.3742 33.8268 15.3243 33.7065 15.3243 33.5811V29.7973C15.3243 29.6719 15.3742 29.5516 15.4629 29.4629C15.5516 29.3742 15.6719 29.3243 15.7973 29.3243C15.9227 29.3243 16.043 29.3742 16.1317 29.4629C16.2204 29.5516 16.2703 29.6719 16.2703 29.7973V33.5811C16.2703 33.7065 16.2204 33.8268 16.1317 33.9155C16.043 34.0042 15.9227 34.0541 15.7973 34.0541Z" fill="#F2F2F2"/>
<path d="M12.3919 34.0541C12.2665 34.0541 12.1462 34.0042 12.0575 33.9155C11.9688 33.8268 11.9189 33.7065 11.9189 33.5811V29.7973C11.9189 29.6719 11.9688 29.5516 12.0575 29.4629C12.1462 29.3742 12.2665 29.3243 12.3919 29.3243C12.5173 29.3243 12.6376 29.3742 12.7263 29.4629C12.815 29.5516 12.8649 29.6719 12.8649 29.7973V33.5811C12.8649 33.7065 12.815 33.8268 12.7263 33.9155C12.6376 34.0042 12.5173 34.0541 12.3919 34.0541Z" fill="#F2F2F2"/>
<path d="M8.98649 34.0541C8.86105 34.0541 8.74075 34.0042 8.65205 33.9155C8.56335 33.8268 8.51352 33.7065 8.51352 33.5811V29.7973C8.51352 29.6719 8.56335 29.5516 8.65205 29.4629C8.74075 29.3742 8.86105 29.3243 8.98649 29.3243C9.11193 29.3243 9.23223 29.3742 9.32093 29.4629C9.40963 29.5516 9.45946 29.6719 9.45946 29.7973V33.5811C9.45946 33.7065 9.40963 33.8268 9.32093 33.9155C9.23223 34.0042 9.11193 34.0541 8.98649 34.0541Z" fill="#F2F2F2"/>
<path d="M33.5811 26.4865H29.7973C29.6718 26.4865 29.5515 26.4366 29.4628 26.3479C29.3741 26.2592 29.3243 26.1389 29.3243 26.0135C29.3243 25.8881 29.3741 25.7678 29.4628 25.6791C29.5515 25.5904 29.6718 25.5405 29.7973 25.5405H33.5811C33.7065 25.5405 33.8268 25.5904 33.9155 25.6791C34.0042 25.7678 34.054 25.8881 34.054 26.0135C34.054 26.1389 34.0042 26.2592 33.9155 26.3479C33.8268 26.4366 33.7065 26.4865 33.5811 26.4865Z" fill="#F2F2F2"/>
<path d="M33.5811 23.0811H29.7973C29.6718 23.0811 29.5515 23.0313 29.4628 22.9426C29.3741 22.8539 29.3243 22.7335 29.3243 22.6081C29.3243 22.4827 29.3741 22.3624 29.4628 22.2737C29.5515 22.185 29.6718 22.1351 29.7973 22.1351H33.5811C33.7065 22.1351 33.8268 22.185 33.9155 22.2737C34.0042 22.3624 34.054 22.4827 34.054 22.6081C34.054 22.7335 34.0042 22.8539 33.9155 22.9426C33.8268 23.0313 33.7065 23.0811 33.5811 23.0811Z" fill="#F2F2F2"/>
<path d="M33.5811 19.6757H29.7973C29.6718 19.6757 29.5515 19.6259 29.4628 19.5372C29.3741 19.4485 29.3243 19.3282 29.3243 19.2027C29.3243 19.0773 29.3741 18.957 29.4628 18.8683C29.5515 18.7796 29.6718 18.7297 29.7973 18.7297H33.5811C33.7065 18.7297 33.8268 18.7796 33.9155 18.8683C34.0042 18.957 34.054 19.0773 34.054 19.2027C34.054 19.3282 34.0042 19.4485 33.9155 19.5372C33.8268 19.6259 33.7065 19.6757 33.5811 19.6757Z" fill="#F2F2F2"/>
<path d="M33.5811 16.2703H29.7973C29.6718 16.2703 29.5515 16.2205 29.4628 16.1318C29.3741 16.0431 29.3243 15.9228 29.3243 15.7973C29.3243 15.6719 29.3741 15.5516 29.4628 15.4629C29.5515 15.3742 29.6718 15.3243 29.7973 15.3243H33.5811C33.7065 15.3243 33.8268 15.3742 33.9155 15.4629C34.0042 15.5516 34.054 15.6719 34.054 15.7973C34.054 15.9228 34.0042 16.0431 33.9155 16.1318C33.8268 16.2205 33.7065 16.2703 33.5811 16.2703Z" fill="#F2F2F2"/>
<path d="M33.5811 12.8649H29.7973C29.6718 12.8649 29.5515 12.8151 29.4628 12.7264C29.3741 12.6377 29.3243 12.5174 29.3243 12.3919C29.3243 12.2665 29.3741 12.1462 29.4628 12.0575C29.5515 11.9688 29.6718 11.9189 29.7973 11.9189H33.5811C33.7065 11.9189 33.8268 11.9688 33.9155 12.0575C34.0042 12.1462 34.054 12.2665 34.054 12.3919C34.054 12.5174 34.0042 12.6377 33.9155 12.7264C33.8268 12.8151 33.7065 12.8649 33.5811 12.8649Z" fill="#F2F2F2"/>
<path d="M33.5811 9.45943H29.7973C29.6718 9.45943 29.5515 9.4096 29.4628 9.3209C29.3741 9.2322 29.3243 9.1119 29.3243 8.98646C29.3243 8.86102 29.3741 8.74072 29.4628 8.65202C29.5515 8.56332 29.6718 8.51349 29.7973 8.51349H33.5811C33.7065 8.51349 33.8268 8.56332 33.9155 8.65202C34.0042 8.74072 34.054 8.86102 34.054 8.98646C34.054 9.1119 34.0042 9.2322 33.9155 9.3209C33.8268 9.4096 33.7065 9.45943 33.5811 9.45943Z" fill="#F2F2F2"/>
<path d="M5.2027 26.4865H1.41892C1.29348 26.4865 1.17318 26.4366 1.08448 26.3479C0.995777 26.2592 0.945946 26.1389 0.945946 26.0135C0.945946 25.8881 0.995777 25.7678 1.08448 25.6791C1.17318 25.5904 1.29348 25.5405 1.41892 25.5405H5.2027C5.32814 25.5405 5.44845 25.5904 5.53715 25.6791C5.62584 25.7678 5.67568 25.8881 5.67568 26.0135C5.67568 26.1389 5.62584 26.2592 5.53715 26.3479C5.44845 26.4366 5.32814 26.4865 5.2027 26.4865Z" fill="#F2F2F2"/>
<path d="M5.2027 23.0811H1.41892C1.29348 23.0811 1.17318 23.0313 1.08448 22.9426C0.995777 22.8539 0.945946 22.7335 0.945946 22.6081C0.945946 22.4827 0.995777 22.3624 1.08448 22.2737C1.17318 22.185 1.29348 22.1351 1.41892 22.1351H5.2027C5.32814 22.1351 5.44845 22.185 5.53715 22.2737C5.62584 22.3624 5.67568 22.4827 5.67568 22.6081C5.67568 22.7335 5.62584 22.8539 5.53715 22.9426C5.44845 23.0313 5.32814 23.0811 5.2027 23.0811Z" fill="#F2F2F2"/>
<path d="M5.2027 19.6757H1.41892C1.29348 19.6757 1.17318 19.6259 1.08448 19.5372C0.995777 19.4485 0.945946 19.3282 0.945946 19.2027C0.945946 19.0773 0.995777 18.957 1.08448 18.8683C1.17318 18.7796 1.29348 18.7297 1.41892 18.7297H5.2027C5.32814 18.7297 5.44845 18.7796 5.53715 18.8683C5.62584 18.957 5.67568 19.0773 5.67568 19.2027C5.67568 19.3282 5.62584 19.4485 5.53715 19.5372C5.44845 19.6259 5.32814 19.6757 5.2027 19.6757Z" fill="#F2F2F2"/>
<path d="M5.2027 16.2703H1.41892C1.29348 16.2703 1.17318 16.2205 1.08448 16.1318C0.995777 16.0431 0.945946 15.9228 0.945946 15.7973C0.945946 15.6719 0.995777 15.5516 1.08448 15.4629C1.17318 15.3742 1.29348 15.3243 1.41892 15.3243H5.2027C5.32814 15.3243 5.44845 15.3742 5.53715 15.4629C5.62584 15.5516 5.67568 15.6719 5.67568 15.7973C5.67568 15.9228 5.62584 16.0431 5.53715 16.1318C5.44845 16.2205 5.32814 16.2703 5.2027 16.2703Z" fill="#F2F2F2"/>
<path d="M5.2027 12.8649H1.41892C1.29348 12.8649 1.17318 12.8151 1.08448 12.7264C0.995777 12.6377 0.945946 12.5174 0.945946 12.3919C0.945946 12.2665 0.995777 12.1462 1.08448 12.0575C1.17318 11.9688 1.29348 11.9189 1.41892 11.9189H5.2027C5.32814 11.9189 5.44845 11.9688 5.53715 12.0575C5.62584 12.1462 5.67568 12.2665 5.67568 12.3919C5.67568 12.5174 5.62584 12.6377 5.53715 12.7264C5.44845 12.8151 5.32814 12.8649 5.2027 12.8649Z" fill="#F2F2F2"/>
<path d="M5.2027 9.45943H1.41892C1.29348 9.45943 1.17318 9.4096 1.08448 9.3209C0.995777 9.2322 0.945946 9.1119 0.945946 8.98646C0.945946 8.86102 0.995777 8.74072 1.08448 8.65202C1.17318 8.56332 1.29348 8.51349 1.41892 8.51349H5.2027C5.32814 8.51349 5.44845 8.56332 5.53715 8.65202C5.62584 8.74072 5.67568 8.86102 5.67568 8.98646C5.67568 9.1119 5.62584 9.2322 5.53715 9.3209C5.44845 9.4096 5.32814 9.45943 5.2027 9.45943Z" fill="#F2F2F2"/>
<path d="M14.1892 12.2973H8.04054C7.9151 12.2973 7.7948 12.2474 7.7061 12.1587C7.6174 12.07 7.56757 11.9497 7.56757 11.8243C7.56757 11.6988 7.6174 11.5785 7.7061 11.4898C7.7948 11.4011 7.9151 11.3513 8.04054 11.3513H14.1892C14.3146 11.3513 14.4349 11.4011 14.5236 11.4898C14.6123 11.5785 14.6622 11.6988 14.6622 11.8243C14.6622 11.9497 14.6123 12.07 14.5236 12.1587C14.4349 12.2474 14.3146 12.2973 14.1892 12.2973Z" fill="#F2F2F2"/>
<path d="M15.5045 13.6126C15.1508 13.6126 14.8051 13.5078 14.511 13.3113C14.2169 13.1147 13.9877 12.8355 13.8524 12.5087C13.717 12.1819 13.6816 11.8223 13.7506 11.4754C13.8196 11.1285 13.9899 10.8099 14.24 10.5598C14.4901 10.3097 14.8088 10.1394 15.1557 10.0704C15.5026 10.0014 15.8621 10.0368 16.1889 10.1721C16.5157 10.3075 16.795 10.5367 16.9915 10.8308C17.188 11.1249 17.2928 11.4706 17.2928 11.8243C17.2923 12.2985 17.1038 12.753 16.7685 13.0883C16.4332 13.4236 15.9787 13.6121 15.5045 13.6126ZM15.5045 10.982C15.3379 10.982 15.1751 11.0314 15.0365 11.1239C14.898 11.2165 14.79 11.348 14.7263 11.502C14.6625 11.6559 14.6459 11.8253 14.6784 11.9887C14.7109 12.1521 14.7911 12.3022 14.9089 12.42C15.0267 12.5378 15.1768 12.618 15.3402 12.6505C15.5036 12.683 15.673 12.6663 15.8269 12.6026C15.9808 12.5388 16.1124 12.4308 16.2049 12.2923C16.2975 12.1538 16.3469 11.9909 16.3469 11.8243C16.3467 11.601 16.2578 11.3869 16.0999 11.229C15.942 11.071 15.7279 10.9822 15.5045 10.982Z" fill="#F2F2F2"/>
<path d="M26.9594 22.2298H22.4946C22.3691 22.2298 22.2488 22.1799 22.1601 22.0912C22.0714 22.0025 22.0216 21.8822 22.0216 21.7568C22.0216 21.6313 22.0714 21.511 22.1601 21.4223C22.2488 21.3336 22.3691 21.2838 22.4946 21.2838H26.9594C27.0849 21.2838 27.2052 21.3336 27.2939 21.4223C27.3826 21.511 27.4324 21.6313 27.4324 21.7568C27.4324 21.8822 27.3826 22.0025 27.2939 22.0912C27.2052 22.1799 27.0849 22.2298 26.9594 22.2298Z" fill="#F2F2F2"/>
<path d="M21.1802 23.5451C20.8265 23.5451 20.4808 23.4402 20.1867 23.2437C19.8926 23.0472 19.6634 22.7679 19.528 22.4411C19.3927 22.1143 19.3573 21.7548 19.4263 21.4079C19.4953 21.061 19.6656 20.7423 19.9157 20.4922C20.1658 20.2421 20.4844 20.0718 20.8313 20.0028C21.1782 19.9338 21.5378 19.9692 21.8646 20.1046C22.1913 20.2399 22.4706 20.4691 22.6671 20.7632C22.8636 21.0573 22.9685 21.4031 22.9685 21.7568C22.968 22.2309 22.7794 22.6855 22.4442 23.0207C22.1089 23.356 21.6543 23.5446 21.1802 23.5451ZM21.1802 20.9144C21.0136 20.9144 20.8507 20.9638 20.7122 21.0564C20.5737 21.1489 20.4657 21.2805 20.402 21.4344C20.3382 21.5883 20.3215 21.7577 20.354 21.9211C20.3865 22.0845 20.4668 22.2346 20.5846 22.3524C20.7024 22.4702 20.8525 22.5504 21.0159 22.5829C21.1793 22.6154 21.3487 22.5988 21.5026 22.535C21.6565 22.4712 21.7881 22.3633 21.8806 22.2247C21.9732 22.0862 22.0226 21.9234 22.0226 21.7568C22.0223 21.5334 21.9335 21.3193 21.7756 21.1614C21.6177 21.0035 21.4035 20.9146 21.1802 20.9144Z" fill="#F2F2F2"/>
<path d="M13.1397 17.8731C12.786 17.8731 12.4402 17.7683 12.1461 17.5718C11.852 17.3752 11.6228 17.096 11.4875 16.7692C11.3521 16.4424 11.3167 16.0828 11.3857 15.7359C11.4547 15.389 11.625 15.0704 11.8751 14.8203C12.1252 14.5702 12.4439 14.3999 12.7908 14.3309C13.1377 14.2619 13.4972 14.2973 13.824 14.4326C14.1508 14.568 14.4301 14.7972 14.6266 15.0913C14.8231 15.3854 14.928 15.7311 14.928 16.0848C14.9275 16.559 14.7389 17.0135 14.4036 17.3488C14.0684 17.6841 13.6138 17.8726 13.1397 17.8731ZM13.1397 15.2425C12.9731 15.2425 12.8102 15.2919 12.6717 15.3844C12.5331 15.477 12.4252 15.6085 12.3614 15.7625C12.2977 15.9164 12.281 16.0858 12.3135 16.2492C12.346 16.4126 12.4262 16.5627 12.544 16.6805C12.6618 16.7983 12.8119 16.8785 12.9753 16.911C13.1387 16.9435 13.3081 16.9268 13.462 16.8631C13.6159 16.7993 13.7475 16.6913 13.8401 16.5528C13.9326 16.4143 13.982 16.2514 13.982 16.0848C13.9819 15.8615 13.8931 15.6473 13.7352 15.4893C13.5772 15.3314 13.363 15.2426 13.1397 15.2425Z" fill="#F2F2F2"/>
<path d="M11.8243 16.554H8.04054C7.9151 16.554 7.7948 16.5042 7.7061 16.4155C7.6174 16.3268 7.56757 16.2065 7.56757 16.0811C7.56757 15.9556 7.6174 15.8353 7.7061 15.7466C7.7948 15.6579 7.9151 15.6081 8.04054 15.6081H11.8243C11.9498 15.6081 12.0701 15.6579 12.1588 15.7466C12.2475 15.8353 12.2973 15.9556 12.2973 16.0811C12.2973 16.2065 12.2475 16.3268 12.1588 16.4155C12.0701 16.5042 11.9498 16.554 11.8243 16.554Z" fill="#F2F2F2"/>
<path d="M12.0608 23.9144C11.7334 23.9144 11.4134 23.8174 11.1411 23.6355C10.8689 23.4536 10.6567 23.195 10.5314 22.8925C10.4061 22.5901 10.3733 22.2572 10.4372 21.9361C10.5011 21.615 10.6588 21.32 10.8903 21.0885C11.1218 20.857 11.4167 20.6993 11.7379 20.6354C12.059 20.5716 12.3918 20.6044 12.6943 20.7296C12.9968 20.8549 13.2553 21.0671 13.4372 21.3393C13.6191 21.6116 13.7162 21.9316 13.7162 22.259C13.7162 22.6981 13.5418 23.1191 13.2314 23.4296C12.9209 23.74 12.4999 23.9144 12.0608 23.9144ZM12.0608 21.5496C11.9205 21.5496 11.7833 21.5912 11.6667 21.6691C11.55 21.7471 11.4591 21.8579 11.4054 21.9875C11.3517 22.1172 11.3376 22.2598 11.365 22.3975C11.3924 22.5351 11.4599 22.6615 11.5592 22.7607C11.6584 22.8599 11.7848 22.9275 11.9224 22.9549C12.06 22.9822 12.2027 22.9682 12.3323 22.9145C12.462 22.8608 12.5728 22.7699 12.6507 22.6532C12.7287 22.5365 12.7703 22.3994 12.7703 22.259C12.7703 22.0709 12.6955 21.8904 12.5625 21.7574C12.4294 21.6243 12.249 21.5496 12.0608 21.5496Z" fill="#F2F2F2"/>
<path d="M14.0851 27.4324C13.9597 27.4324 13.8394 27.3826 13.7507 27.2939C13.662 27.2052 13.6122 27.0849 13.6122 26.9595V24.2229L12.6757 23.2878C12.6305 23.2442 12.5945 23.192 12.5697 23.1343C12.5449 23.0766 12.5318 23.0145 12.5313 22.9517C12.5308 22.8889 12.5427 22.8266 12.5665 22.7685C12.5903 22.7104 12.6254 22.6575 12.6698 22.6131C12.7142 22.5687 12.767 22.5336 12.8252 22.5098C12.8833 22.486 12.9456 22.4741 13.0084 22.4746C13.0712 22.4752 13.1332 22.4882 13.1909 22.513C13.2486 22.5378 13.3008 22.5738 13.3445 22.619L14.4181 23.6926C14.5068 23.7813 14.5567 23.9016 14.5567 24.027V26.9595C14.5567 27.0847 14.507 27.2047 14.4187 27.2934C14.3303 27.3821 14.2103 27.4321 14.0851 27.4324Z" fill="#F2F2F2"/>
<path d="M21.3131 14.5808C20.9857 14.5808 20.6657 14.4837 20.3934 14.3018C20.1212 14.1199 19.909 13.8614 19.7837 13.5589C19.6584 13.2564 19.6256 12.9236 19.6895 12.6025C19.7534 12.2814 19.9111 11.9864 20.1426 11.7549C20.3741 11.5234 20.669 11.3657 20.9902 11.3018C21.3113 11.238 21.6441 11.2707 21.9466 11.396C22.2491 11.5213 22.5076 11.7335 22.6895 12.0057C22.8714 12.278 22.9685 12.598 22.9685 12.9254C22.9679 13.3643 22.7933 13.785 22.483 14.0953C22.1727 14.4056 21.752 14.5802 21.3131 14.5808ZM21.3131 12.216C21.1728 12.216 21.0356 12.2576 20.919 12.3355C20.8023 12.4135 20.7114 12.5243 20.6577 12.6539C20.604 12.7836 20.5899 12.9262 20.6173 13.0638C20.6447 13.2015 20.7122 13.3279 20.8115 13.4271C20.9107 13.5263 21.0371 13.5939 21.1747 13.6213C21.3123 13.6486 21.455 13.6346 21.5846 13.5809C21.7143 13.5272 21.8251 13.4363 21.903 13.3196C21.981 13.2029 22.0226 13.0657 22.0226 12.9254C22.0226 12.7373 21.9478 12.5568 21.8148 12.4238C21.6817 12.2907 21.5013 12.216 21.3131 12.216Z" fill="#F2F2F2"/>
<path d="M22.0074 12.4473C21.9139 12.4472 21.8225 12.4195 21.7447 12.3675C21.6669 12.3156 21.6063 12.2417 21.5706 12.1553C21.5348 12.0689 21.5254 11.9738 21.5436 11.8821C21.5619 11.7903 21.6069 11.7061 21.673 11.6399L22.7467 10.5663C22.8354 10.4775 22.9556 10.4277 23.0811 10.4277H26.9594C27.0849 10.4277 27.2052 10.4775 27.2939 10.5662C27.3826 10.6549 27.4324 10.7752 27.4324 10.9006C27.4324 11.0261 27.3826 11.1464 27.2939 11.2351C27.2052 11.3238 27.0849 11.3736 26.9594 11.3736H23.2769L22.3418 12.3087C22.298 12.3528 22.2459 12.3877 22.1885 12.4115C22.1311 12.4353 22.0696 12.4474 22.0074 12.4473Z" fill="#F2F2F2"/>
<path d="M21.4167 19.1142C21.0893 19.1142 20.7692 19.0171 20.497 18.8352C20.2248 18.6533 20.0126 18.3948 19.8873 18.0923C19.762 17.7898 19.7292 17.457 19.7931 17.1359C19.857 16.8147 20.0146 16.5198 20.2461 16.2883C20.4777 16.0568 20.7726 15.8991 21.0937 15.8352C21.4149 15.7713 21.7477 15.8041 22.0502 15.9294C22.3527 16.0547 22.6112 16.2669 22.7931 16.5391C22.975 16.8113 23.0721 17.1314 23.0721 17.4588C23.0721 17.8979 22.8977 18.3189 22.5872 18.6294C22.2768 18.9398 21.8557 19.1142 21.4167 19.1142ZM21.4167 16.7494C21.2764 16.7494 21.1392 16.791 21.0225 16.8689C20.9059 16.9469 20.8149 17.0577 20.7612 17.1873C20.7075 17.317 20.6935 17.4596 20.7209 17.5972C20.7482 17.7348 20.8158 17.8613 20.915 17.9605C21.0142 18.0597 21.1407 18.1273 21.2783 18.1546C21.4159 18.182 21.5586 18.168 21.6882 18.1143C21.8178 18.0606 21.9286 17.9696 22.0066 17.853C22.0845 17.7363 22.1261 17.5991 22.1261 17.4588C22.1261 17.2707 22.0514 17.0902 21.9184 16.9571C21.7853 16.8241 21.6048 16.7494 21.4167 16.7494Z" fill="#F2F2F2"/>
<path d="M22.1115 16.9797C22.018 16.9797 21.9266 16.952 21.8488 16.9C21.771 16.848 21.7104 16.7742 21.6746 16.6878C21.6388 16.6013 21.6295 16.5063 21.6477 16.4145C21.666 16.3228 21.711 16.2385 21.7771 16.1724L22.8508 15.0987C22.9394 15.01 23.0597 14.9602 23.1852 14.9601H26.9595C27.0849 14.9601 27.2052 15.01 27.2939 15.0987C27.3826 15.1874 27.4325 15.3077 27.4325 15.4331C27.4325 15.5586 27.3826 15.6789 27.2939 15.7676C27.2052 15.8563 27.0849 15.9061 26.9595 15.9061H23.381L22.4459 16.8412C22.3572 16.9299 22.2369 16.9797 22.1115 16.9797Z" fill="#F2F2F2"/>
<path d="M16.4632 21.1802C16.1095 21.1802 15.7638 21.0753 15.4697 20.8788C15.1756 20.6823 14.9464 20.403 14.8111 20.0762C14.6757 19.7495 14.6403 19.3899 14.7093 19.043C14.7783 18.6961 14.9486 18.3775 15.1987 18.1274C15.4488 17.8773 15.7675 17.7069 16.1144 17.6379C16.4613 17.5689 16.8208 17.6044 17.1476 17.7397C17.4744 17.8751 17.7537 18.1043 17.9502 18.3984C18.1467 18.6924 18.2515 19.0382 18.2515 19.3919C18.251 19.866 18.0625 20.3206 17.7272 20.6559C17.3919 20.9911 16.9374 21.1797 16.4632 21.1802ZM16.4632 18.5495C16.2966 18.5495 16.1338 18.5989 15.9952 18.6915C15.8567 18.784 15.7487 18.9156 15.685 19.0695C15.6212 19.2234 15.6046 19.3928 15.6371 19.5562C15.6696 19.7196 15.7498 19.8697 15.8676 19.9875C15.9854 20.1053 16.1355 20.1856 16.2989 20.2181C16.4623 20.2506 16.6317 20.2339 16.7856 20.1701C16.9395 20.1064 17.0711 19.9984 17.1636 19.8599C17.2562 19.7214 17.3056 19.5585 17.3056 19.3919C17.3053 19.1686 17.2165 18.9544 17.0586 18.7965C16.9007 18.6386 16.6866 18.5498 16.4632 18.5495Z" fill="#F2F2F2"/>
<path d="M17.973 27.4324C17.8475 27.4324 17.7272 27.3826 17.6385 27.2939C17.5498 27.2052 17.5 27.0849 17.5 26.9594V24.5917L16.1284 23.2201C16.0397 23.1314 15.9898 23.0112 15.9898 22.8857V20.7067C15.9898 20.5813 16.0396 20.461 16.1283 20.3723C16.217 20.2836 16.3373 20.2338 16.4628 20.2338C16.5882 20.2338 16.7085 20.2836 16.7972 20.3723C16.8859 20.461 16.9357 20.5813 16.9357 20.7067V22.6932L18.3074 24.0648C18.3953 24.1527 18.445 24.2716 18.4459 24.3959V26.9594C18.4459 27.0849 18.3961 27.2052 18.3074 27.2939C18.2187 27.3826 18.0984 27.4324 17.973 27.4324Z" fill="#F2F2F2"/>
</svg>
