<svg width="35" height="35" viewBox="0 0 35 35" fill="none" xmlns="http://www.w3.org/2000/svg">
<path d="M34.3114 16.2771L28.6907 13.4669L34.3114 10.6564C35.3168 10.1538 35.3179 8.71399 34.3114 8.21064L18.1785 0.144196C17.7935 -0.0480654 17.3406 -0.0480654 16.9555 0.144196L0.822649 8.21064C-0.182719 8.71346 -0.183788 10.1533 0.822649 10.6564L6.44337 13.4669L0.822649 16.2771C-0.182719 16.7799 -0.183788 18.2195 0.822649 18.7228L6.44337 21.5333L0.822649 24.3435C-0.182719 24.8463 -0.183788 26.2859 0.822649 26.7893L16.9555 34.8557C17.3398 35.0477 17.7927 35.0485 18.1785 34.8557L34.3114 26.7893C35.3168 26.2864 35.3179 24.8469 34.3114 24.3435L28.6907 21.5333L34.3114 18.7228C35.3168 18.2203 35.3179 16.7804 34.3114 16.2771ZM17.567 2.89567L30.6427 9.43364L17.567 15.9713L4.49137 9.43364L17.567 2.89567ZM30.6427 25.5665L17.567 32.1042L4.49137 25.5665L9.50059 23.0618L16.9555 26.7893C17.3401 26.9812 17.7927 26.982 18.1785 26.7893L25.6335 23.0618L30.6427 25.5665ZM17.567 24.0378L4.49137 17.5001L9.50059 14.9953L16.9555 18.7228C17.3401 18.9148 17.7927 18.9156 18.1785 18.7228L25.6335 14.9953L30.6427 17.5001L17.567 24.0378Z" fill="#F2F2F2"/>
</svg>
