<svg width="42" height="41" viewBox="0 0 42 41" fill="none" xmlns="http://www.w3.org/2000/svg">
<path d="M32.8652 17.2305C32.8652 24.3152 30.3239 23.9678 30.3239 23.9678H25.6983L24.6196 17.9619L23.3946 23.9678H21.74L20.8259 12.1387L18.3577 30.1292L17.1236 23.9678H9.99323" stroke="white" stroke-linecap="round" stroke-linejoin="round"/>
<path d="M31.2929 8.54611C26.7679 9.46026 30.1685 15.8593 30.1685 15.8593" stroke="white" stroke-linejoin="round"/>
<path d="M31.6037 9.03064C31.9672 9.03064 32.2619 8.85465 32.2619 8.63756C32.2619 8.42047 31.9672 8.24448 31.6037 8.24448C31.2402 8.24448 30.9455 8.42047 30.9455 8.63756C30.9455 8.85465 31.2402 9.03064 31.6037 9.03064Z" fill="white" stroke="white" stroke-linejoin="round"/>
<path d="M34.593 8.54611C39.118 9.46026 35.7174 15.8593 35.7174 15.8593" stroke="white" stroke-linejoin="round"/>
<path d="M34.2822 9.03064C34.6457 9.03064 34.9404 8.85465 34.9404 8.63756C34.9404 8.42047 34.6457 8.24448 34.2822 8.24448C33.9187 8.24448 33.624 8.42047 33.624 8.63756C33.624 8.85465 33.9187 9.03064 34.2822 9.03064Z" fill="white" stroke="white" stroke-linejoin="round"/>
<path d="M29.9674 15.3383C30.2324 15.9073 30.6436 16.3959 31.1592 16.754C31.6747 17.1122 32.276 17.3271 32.9018 17.3768" stroke="white" stroke-linecap="round" stroke-linejoin="round"/>
<path d="M35.9002 15.3383C35.5945 15.9038 35.1545 16.3855 34.6189 16.7409C34.0833 17.0964 33.4685 17.3148 32.8287 17.3768" stroke="white" stroke-linecap="round" stroke-linejoin="round"/>
<path d="M38.2953 8.32674C37.506 6.69717 36.2648 5.32888 34.7197 4.3849C33.1746 3.44091 31.3907 2.96105 29.5805 3.00247C27.7703 3.0439 26.0102 3.60487 24.5099 4.61854C23.0096 5.63222 21.8323 7.05585 21.1184 8.71982C20.2604 6.72415 18.7405 5.08534 16.8151 4.07962C14.8896 3.0739 12.6762 2.76278 10.5481 3.19872C8.42 3.63465 6.50725 4.79097 5.13229 6.47276C3.75734 8.15455 3.00426 10.259 3 12.4313C3 12.4313 3 12.5318 3 12.7147C3 12.8975 3 13.1991 3.04571 13.4368C3.36566 17.1666 5.58704 29.2425 21.1184 38C23.9681 36.408 26.6297 34.5006 29.0532 32.314" stroke="white" stroke-miterlimit="10"/>
</svg>
