<svg width="35" height="35" viewBox="0 0 35 35" fill="none" xmlns="http://www.w3.org/2000/svg">
<path d="M31.1719 1.64062H16.9531V0.546875H8.20312V1.64062H3.82812C2.01852 1.64062 0.546875 3.11227 0.546875 4.92188V28.9844C0.546875 30.794 2.01852 32.2656 3.82812 32.2656H7.10938V26.7969H10.6772C11.0195 28.2483 11.6621 29.6242 12.5781 30.8142V34.4531H22.4219V30.8142C23.3379 29.6242 23.9805 28.2483 24.3228 26.7969H27.8906V32.2656H31.1719C32.9815 32.2656 34.4531 30.794 34.4531 28.9844V4.92188C34.4531 3.11227 32.9815 1.64062 31.1719 1.64062ZM9.29688 1.64062H15.8594V4.92188H9.29688V1.64062ZM3.82812 2.73438H8.20312V6.01562H12.2298L14.5436 10.9736C13.8305 11.4674 13.3246 12.2363 13.1742 13.125H11.4844V12.0312H8.20312V15.3125H11.4844V14.2188H13.1748C13.3372 15.1774 13.9185 16.0163 14.7656 16.5069V24.0625C14.7656 24.3644 14.5206 24.6094 14.2188 24.6094C13.9169 24.6094 13.6719 24.3644 13.6719 24.0625V20.7812C13.6719 19.5748 12.6908 18.5938 11.4844 18.5938C10.8812 18.5938 10.3906 19.0843 10.3906 19.6875V23.5156H7.10938V22.4219H9.29688V21.3281H7.10938V7.10938H3.82812C2.62172 7.10938 1.64062 6.12828 1.64062 4.92188C1.64062 3.71547 2.62172 2.73438 3.82812 2.73438ZM22.4219 8.20312H27.8906V11.4844H22.4219V8.20312ZM27.8906 12.5781V23.5156H24.6094V22.4219H26.7969V21.3281H24.6094V20.7812C24.6094 19.8767 23.8733 19.1406 22.9688 19.1406C22.7527 19.1406 22.5477 19.1849 22.3584 19.2609C22.1698 18.5637 21.5376 18.0469 20.7812 18.0469C20.5652 18.0469 20.3602 18.0912 20.1709 18.1672C19.9823 17.4699 19.3501 16.9531 18.5938 16.9531C18.4013 16.9531 18.2186 16.9925 18.0469 17.0537V16.5069C19.052 15.925 19.6875 14.8515 19.6875 13.6719C19.6875 12.6279 19.1959 11.6982 18.4335 11.0972L20.0123 8.20312H21.3281V12.5781H27.8906ZM18.5938 13.6719C18.5938 14.2242 18.3848 14.7421 18.0288 15.1364C17.9402 14.3155 17.2506 13.6719 16.4062 13.6719C15.5619 13.6719 14.8723 14.3155 14.7837 15.1364C14.4277 14.7421 14.2188 14.2242 14.2188 13.6719C14.2188 12.4655 15.1998 11.4844 16.4062 11.4844C17.6127 11.4844 18.5938 12.4655 18.5938 13.6719ZM10.3906 13.125V14.2188H9.29688V13.125H10.3906ZM6.01562 31.1719H3.82812C2.62172 31.1719 1.64062 30.1908 1.64062 28.9844V7.36586C2.22195 7.88594 2.98867 8.20312 3.82812 8.20312H6.01562V31.1719ZM7.10938 25.7031V24.6094H10.3999C10.4076 24.9763 10.4371 25.3405 10.483 25.7031H7.10938ZM23.5156 24.389C23.5156 26.5229 22.7812 28.6163 21.4479 30.2832L21.3281 30.433V33.3594H13.6719V30.433L13.5521 30.2832C12.2188 28.6163 11.4844 26.5229 11.4844 24.389V19.6875C12.0876 19.6875 12.5781 20.178 12.5781 20.7812V24.0625C12.5781 24.967 13.3142 25.7031 14.2188 25.7031C15.1233 25.7031 15.8594 24.967 15.8594 24.0625V15.3125C15.8594 15.0106 16.1044 14.7656 16.4062 14.7656C16.7081 14.7656 16.9531 15.0106 16.9531 15.3125V24.6094H18.0469V18.5938C18.0469 18.2919 18.2919 18.0469 18.5938 18.0469C18.8956 18.0469 19.1406 18.2919 19.1406 18.5938V24.6094H20.2344V19.6875C20.2344 19.3856 20.4794 19.1406 20.7812 19.1406C21.0831 19.1406 21.3281 19.3856 21.3281 19.6875V24.6094H22.4219V20.7812C22.4219 20.4794 22.6669 20.2344 22.9688 20.2344C23.2706 20.2344 23.5156 20.4794 23.5156 20.7812V24.389ZM24.5175 25.7031C24.5634 25.3405 24.5924 24.9763 24.6006 24.6094H27.8906V25.7031H24.5175ZM33.3594 28.9844C33.3594 30.1908 32.3783 31.1719 31.1719 31.1719H28.9844V8.20312H31.1719C32.0113 8.20312 32.7786 7.88594 33.3594 7.36586V28.9844ZM31.1719 7.10938H28.4375H27.8906H19.3627L17.4737 10.5727C17.1385 10.4568 16.7803 10.3906 16.4062 10.3906C16.1044 10.3906 15.8129 10.4349 15.5351 10.5115L13.4367 6.01562H16.9531V2.73438H31.1719C32.3783 2.73438 33.3594 3.71547 33.3594 4.92188C33.3594 6.12828 32.3783 7.10938 31.1719 7.10938Z" fill="#F2F2F2"/>
</svg>
