<svg width="45" height="46" viewBox="0 0 45 46" fill="none" xmlns="http://www.w3.org/2000/svg">
<path d="M38.9187 21.1598C40.2364 20.2431 41.109 18.7182 41.109 16.9994C41.109 14.1875 38.8118 11.9134 35.9715 11.9134C33.1312 11.9134 30.834 14.1875 30.834 16.9994C30.834 18.7182 31.6977 20.2431 33.0243 21.1598C31.8935 21.5476 30.8607 22.147 29.9881 22.9227C28.7861 21.909 27.3704 21.1334 25.8211 20.675C27.6998 19.5468 28.9642 17.493 28.9642 15.1571C28.9642 11.5961 26.0526 8.71375 22.4555 8.71375C18.8583 8.71375 15.9468 11.6049 15.9468 15.1571C15.9468 17.493 17.2022 19.5468 19.0898 20.675C17.5584 21.1334 16.1605 21.9002 14.9674 22.8963C14.0948 22.1382 13.0797 21.5476 11.9668 21.1686C13.2845 20.2519 14.1571 18.727 14.1571 17.0082C14.1571 14.1964 11.8599 11.9222 9.01959 11.9222C6.17926 11.9222 3.88207 14.1964 3.88207 17.0082C3.88207 18.727 4.74575 20.2519 6.07242 21.1686C2.53759 22.3762 0 25.6993 0 29.6041V30.1859C0 30.2035 0.0178077 30.2211 0.0356154 30.2211H10.925C10.8627 30.7059 10.8271 31.2083 10.8271 31.7108V32.3101C10.8271 34.9016 12.9462 36.9995 15.5639 36.9995H29.3649C31.9826 36.9995 34.1017 34.9016 34.1017 32.3101V31.7108C34.1017 31.2083 34.0661 30.7059 34.0038 30.2211H44.9644C44.9822 30.2211 45 30.2035 45 30.1859V29.6041C44.9822 25.6905 42.4535 22.3674 38.9187 21.1598ZM32.2586 16.9906C32.2586 14.9632 33.9236 13.3149 35.9715 13.3149C38.0194 13.3149 39.6844 14.9632 39.6844 16.9906C39.6844 18.9914 38.055 20.6221 36.0427 20.6662C36.016 20.6662 35.9982 20.6662 35.9715 20.6662C35.9448 20.6662 35.927 20.6662 35.9003 20.6662C33.8791 20.6309 32.2586 19.0003 32.2586 16.9906ZM17.3536 15.1571C17.3536 12.3806 19.633 10.1241 22.4377 10.1241C25.2424 10.1241 27.5218 12.3806 27.5218 15.1571C27.5218 17.8367 25.3937 20.0316 22.7315 20.1814C22.6336 20.1814 22.5356 20.1814 22.4377 20.1814C22.3397 20.1814 22.2418 20.1814 22.1438 20.1814C19.4816 20.0316 17.3536 17.8367 17.3536 15.1571ZM5.27998 16.9906C5.27998 14.9632 6.94499 13.3149 8.99288 13.3149C11.0408 13.3149 12.7058 14.9632 12.7058 16.9906C12.7058 18.9914 11.0764 20.6221 9.06411 20.6662C9.0374 20.6662 9.01959 20.6662 8.99288 20.6662C8.96617 20.6662 8.94836 20.6662 8.92165 20.6662C6.90938 20.6309 5.27998 19.0003 5.27998 16.9906ZM11.1743 28.802H1.44242C1.84309 25.047 5.04848 22.103 8.93945 22.0765C8.95726 22.0765 8.97507 22.0765 8.99288 22.0765C9.01068 22.0765 9.02849 22.0765 9.0463 22.0765C10.8983 22.0853 12.59 22.764 13.8989 23.8659C12.6167 25.2409 11.664 26.9333 11.1743 28.802ZM32.6593 32.3101C32.6593 34.1171 31.1723 35.5891 29.3471 35.5891H15.5461C13.7208 35.5891 12.2339 34.1171 12.2339 32.3101V31.7108C12.2339 26.237 16.6502 21.7592 22.1438 21.6005C22.2418 21.6094 22.3486 21.6094 22.4466 21.6094C22.5445 21.6094 22.6514 21.6094 22.7493 21.6005C28.243 21.7592 32.6593 26.237 32.6593 31.7108V32.3101ZM33.7188 28.802C33.2291 26.9421 32.2942 25.2762 31.021 23.9011C32.3387 22.7729 34.0483 22.0941 35.9181 22.0765C35.9359 22.0765 35.9537 22.0765 35.9715 22.0765C35.9893 22.0765 36.0071 22.0765 36.0249 22.0765C39.9159 22.103 43.1213 25.047 43.522 28.802H33.7188Z" fill="#F2F2F2"/>
</svg>
