<svg width="35" height="27" viewBox="0 0 35 27" fill="none" xmlns="http://www.w3.org/2000/svg">
<path d="M23.1704 12.6305L14.9673 7.50352C14.6511 7.30596 14.2527 7.2955 13.9267 7.47618C13.6007 7.65685 13.3984 8.00029 13.3984 8.37305V18.627C13.3984 18.9997 13.6007 19.3431 13.9267 19.5238C14.0816 19.6097 14.2528 19.6523 14.4238 19.6523C14.6126 19.6523 14.8012 19.6002 14.9672 19.4965L23.1704 14.3695C23.4702 14.1822 23.6523 13.8536 23.6523 13.5C23.6523 13.1464 23.4702 12.8178 23.1704 12.6305ZM15.4492 16.7769V10.2231L20.6923 13.5L15.4492 16.7769Z" fill="#F2F2F2"/>
<path d="M29.873 0.169922H5.12695C2.29995 0.169922 0 2.46987 0 5.29688V21.7031C0 24.5301 2.29995 26.8301 5.12695 26.8301H29.873C32.7001 26.8301 35 24.5301 35 21.7031V5.29688C35 2.46987 32.7001 0.169922 29.873 0.169922ZM32.9492 21.7031C32.9492 23.3993 31.5692 24.7793 29.873 24.7793H5.12695C3.43075 24.7793 2.05078 23.3993 2.05078 21.7031V5.29688C2.05078 3.60067 3.43075 2.2207 5.12695 2.2207H29.873C31.5692 2.2207 32.9492 3.60067 32.9492 5.29688V21.7031Z" fill="#F2F2F2"/>
</svg>
